<?xml version="1.0" encoding="utf-8"?>
<!-- Generator: Adobe Illustrator 27.4.0, SVG Export Plug-In . SVG Version: 6.00 Build 0)  -->
<svg version="1.1" id="_x35_91" xmlns="http://www.w3.org/2000/svg" xmlns:xlink="http://www.w3.org/1999/xlink" x="0px" y="0px"
	 viewBox="0 0 3290 2013" style="enable-background:new 0 0 3290 2013;" xml:space="preserve">
<style type="text/css">
	.st0{display:none;fill-rule:evenodd;clip-rule:evenodd;fill:#FFFFFF;}
	.st1{fill-rule:evenodd;clip-rule:evenodd;}
	.st2{fill-rule:evenodd;clip-rule:evenodd;fill:#FFFBD5;}
	.st3{fill:#238389;}
	.st4{fill:#2EAEB7;}
	.st5{fill:#B68117;}
	.st6{fill:#F3AC1E;}
</style>
<g>
	<rect x="-363" y="-978" class="st0" width="4000" height="4000"/>
	<path class="st1" d="M364.83,1896.83h2589.32c13.6,0,24.71,11.21,24.71,24.95l0,0c0,13.74-11.1,24.96-24.71,24.96H364.83
		c-13.61,0-24.71-11.22-24.71-24.96l0,0C340.12,1908.04,351.23,1896.83,364.83,1896.83L364.83,1896.83z M3180.98,1896.83h-0.27
		c-13.6,0-24.71,11.21-24.71,24.95l0,0c0,13.74,11.1,24.96,24.71,24.96h0.27c13.6,0,24.71-11.22,24.71-24.96l0,0
		C3205.69,1908.04,3194.59,1896.83,3180.98,1896.83L3180.98,1896.83z M3097.14,1896.83h-41.37c-13.61,0-24.72,11.21-24.72,24.95l0,0
		c0,13.74,11.1,24.96,24.72,24.96h41.37c13.6,0,24.71-11.22,24.71-24.96l0,0C3121.84,1908.04,3110.74,1896.83,3097.14,1896.83
		L3097.14,1896.83z M234.62,1896.83H93.02c-13.6,0-24.71,11.21-24.71,24.95l0,0c0,13.74,11.11,24.96,24.71,24.96h141.6
		c13.6,0,24.71-11.22,24.71-24.96l0,0C259.32,1908.04,248.22,1896.83,234.62,1896.83L234.62,1896.83z"/>
	<path class="st1" d="M756.43,558.07H717v-39.54c0-11.78-9.44-21.59-21.38-21.59l0,0c-11.66,0-21.1,9.81-21.1,21.59v39.54h-39.43
		c-11.66,0-21.1,9.81-21.1,21.59l0,0c0,11.78,9.44,21.6,21.1,21.6h39.43v39.54c0,11.78,9.44,21.59,21.1,21.59l0,0
		c11.94,0,21.38-9.81,21.38-21.59v-39.54h39.43c11.66,0,21.1-9.81,21.1-21.6l0,0C777.53,567.88,768.09,558.07,756.43,558.07
		L756.43,558.07z"/>
	<path class="st1" d="M3043.9,1524.42h-39.43v-39.82c0-11.78-9.72-21.32-21.38-21.32l0,0c-11.66,0-21.1,9.54-21.1,21.32v39.82
		h-39.43c-11.66,0-21.38,9.53-21.38,21.31l0,0c0,12.05,9.72,21.59,21.38,21.59H2962v39.82c0,11.79,9.44,21.31,21.1,21.31l0,0
		c11.66,0,21.38-9.53,21.38-21.31v-39.82h39.43c11.66,0,21.1-9.54,21.1-21.59l0,0C3065,1533.95,3055.56,1524.42,3043.9,1524.42
		L3043.9,1524.42z"/>
	<path class="st1" d="M2657.34,579.67c21.67,0,39.43-17.67,39.43-39.54c0-21.59-17.76-39.54-39.43-39.54
		c-21.38,0-39.14,17.95-39.14,39.54C2618.2,562,2635.96,579.67,2657.34,579.67L2657.34,579.67z"/>
	<path class="st1" d="M267.66,1668c21.38,0,39.14-17.67,39.14-39.54c0-21.88-17.77-39.55-39.14-39.55
		c-21.66,0-39.15,17.67-39.15,39.55C228.51,1650.33,246,1668,267.66,1668L267.66,1668z"/>
	<path class="st2" d="M733.97,1896.8c-137.33-253.33-107.11-598.7,135.82-849.97c175.16-174.09,324.93-251.02,548.08-344.09
		c188.87-78.46,238.37-195.88,509.75-209.74c386.62-6.66,640.99,255.13,661.55,638.96c14.73,275.11,92.91,475.88-64.47,747.4
		c-3.56,5.89-6.86,11.8-10.41,17.44H733.97z"/>
</g>
<g>
	<polygon class="st3" points="1943.14,1567.36 1724.98,1713.88 1797.69,1458.3 	"/>
	<polygon class="st3" points="2457.93,854.56 2349.08,1000.19 2235.06,914.17 2235.06,914.13 2235.06,911.32 2341.44,767.5 	"/>
	<polygon class="st4" points="2235.06,914.17 2349.08,1000.19 2235.06,1154.24 1943.14,1567.36 1797.69,1458.3 2233.71,913.13 	"/>
	<polygon class="st5" points="2223.09,403.93 2004.95,403.93 2004.95,185.79 2022.62,185.79 2235.06,394.45 2235.06,403.93 	"/>
	<polygon class="st6" points="1724.98,1713.88 1943.14,1567.36 2235.06,1154.24 2235.06,1858.22 816.06,1858.22 816.06,185.79 
		2004.95,185.79 2004.95,403.93 2223.09,403.93 2235.06,403.93 2235.06,911.32 2233.71,913.13 1797.69,1458.3 	"/>
	<path d="M2223.09,442.72h-218.14c-21.41,0-38.77-17.37-38.77-38.78V185.79c0-21.42,17.37-38.78,38.77-38.78
		c21.42,0,38.77,17.37,38.77,38.78v179.36h179.38c21.42,0,38.76,17.37,38.76,38.78C2261.85,425.35,2244.51,442.72,2223.09,442.72z"
		/>
	<path d="M1625.01,406.39H997.85c-21.41,0-38.78-17.36-38.78-38.78c0-21.42,17.37-38.79,38.78-38.79h627.16
		c21.42,0,38.78,17.37,38.78,38.79C1663.79,389.03,1646.43,406.39,1625.01,406.39z"/>
	<path d="M1943.14,588.14H997.85c-21.41,0-38.78-17.37-38.78-38.78c0-21.42,17.37-38.76,38.78-38.76h945.29
		c21.41,0,38.76,17.34,38.76,38.76C1981.91,570.77,1964.55,588.14,1943.14,588.14z"/>
	<path d="M1943.14,697.24H997.85c-21.41,0-38.78-17.37-38.78-38.78c0-21.42,17.37-38.78,38.78-38.78h945.29
		c21.41,0,38.76,17.36,38.76,38.78C1981.91,679.88,1964.55,697.24,1943.14,697.24z"/>
	<path d="M1625.01,806.29H997.85c-21.41,0-38.78-17.35-38.78-38.79c0-21.42,17.37-38.76,38.78-38.76h627.16
		c21.42,0,38.78,17.34,38.78,38.76C1663.79,788.94,1646.43,806.29,1625.01,806.29z"/>
	<path d="M1470.48,915.38H997.85c-21.41,0-38.78-17.36-38.78-38.78s17.37-38.78,38.78-38.78h472.63c21.42,0,38.78,17.36,38.78,38.78
		S1491.89,915.38,1470.48,915.38z"/>
	<path d="M1834.04,1024.43h-690.76c-21.42,0-38.78-17.35-38.78-38.79c0-21.41,17.36-38.76,38.78-38.76h690.76
		c21.42,0,38.79,17.35,38.79,38.76C1872.83,1007.07,1855.46,1024.43,1834.04,1024.43z"/>
	<path d="M1834.04,1133.52H997.85c-21.41,0-38.78-17.37-38.78-38.78c0-21.42,17.37-38.79,38.78-38.79h836.19
		c21.42,0,38.79,17.37,38.79,38.79C1872.83,1116.16,1855.46,1133.52,1834.04,1133.52z"/>
	<path d="M2349.06,1038.97c-8.08,0-16.23-2.51-23.19-7.71c-17.17-12.81-20.67-37.13-7.84-54.28l85.63-114.56l-54.22-40.51
		l-77.81,105.19c-1.27,3.57-3.08,7.01-5.46,10.2c-12.79,17.19-37.07,20.76-54.26,7.96l-1.35-1.01
		c-17.19-12.8-20.76-37.08-7.96-54.26l1.35-1.83l106.32-143.7c6.12-8.3,15.31-13.79,25.53-15.31c10.2-1.51,20.59,1.13,28.87,7.31
		l116.5,87.06c8.24,6.15,13.68,15.33,15.18,25.51c1.45,10.2-1.18,20.53-7.34,28.77l-108.86,145.62
		C2372.53,1033.59,2360.86,1038.97,2349.06,1038.97z"/>
	<path d="M2235.06,1897h-1419c-21.44,0-38.79-17.37-38.79-38.78V185.79c0-21.42,17.35-38.78,38.79-38.78h1206.56
		c10.18,0,19.93,3.99,27.18,11.12l212.44,208.63c7.44,7.29,11.61,17.27,11.61,27.69v519.69c0,21.42-17.37,38.8-38.79,38.8
		c-21.42,0-38.76-17.34-38.76-38.76V410.7l-189.53-186.13H854.82v1594.86H2196.3v-665.2c0-21.42,17.34-38.79,38.76-38.79
		c21.42,0,38.79,17.37,38.79,38.79v703.98C2273.85,1879.63,2256.48,1897,2235.06,1897z"/>
	<path d="M1943.1,1606.15c-8.1,0-16.26-2.53-23.23-7.76l-145.42-109.06c-17.14-12.85-20.62-37.15-7.78-54.3
		c12.86-17.12,37.17-20.61,54.29-7.76l145.43,109.06c17.15,12.83,20.61,37.15,7.78,54.28
		C1966.53,1600.79,1954.89,1606.15,1943.1,1606.15z"/>
	<path d="M1724.98,1752.64c-8,0-16-2.45-22.78-7.39c-13.15-9.57-18.96-26.33-14.51-41.98l72.72-255.58c1.41-4.96,3.8-9.57,7-13.6
		l436.02-545.18c13.22-16.52,37.23-19.4,53.99-6.46l1.17,0.9l113.85,85.89c16.98,12.82,20.47,36.93,7.82,54.02l-113.77,153.71
		l-291.68,412.76c-2.74,3.87-6.14,7.19-10.05,9.83l-218.14,146.52C1740.08,1750.47,1732.52,1752.64,1724.98,1752.64z
		 M1832.87,1476.42l-41.61,146.23l124.31-83.51l287.82-407.29c0.18-0.24,0.34-0.47,0.5-0.71l91.16-123.14l-54.62-41.2
		L1832.87,1476.42z"/>
	<path d="M1724.96,1752.66c-7.47,0-15-2.15-21.66-6.66c-23.57-15.79-100.34-56.09-142.79-34.87c-20.17,10.08-43.6,14.02-67.9,14.02
		c-81.13,0.02-172.08-43.96-184.91-50.37c-19.17-9.57-26.92-32.86-17.35-52.02s32.87-26.92,52.02-17.35
		c53.29,26.51,145.44,55.33,183.47,36.33c90.41-45.15,207.78,31.15,220.88,39.99c17.73,12.01,22.41,36.1,10.4,53.86
		C1749.62,1746.68,1737.39,1752.66,1724.96,1752.66z"/>
</g>
</svg>
