<?xml version="1.0" encoding="utf-8"?>
<!-- Generator: Adobe Illustrator 27.0.1, SVG Export Plug-In . SVG Version: 6.00 Build 0)  -->
<svg version="1.1" id="Layer_1" xmlns="http://www.w3.org/2000/svg" xmlns:xlink="http://www.w3.org/1999/xlink" x="0px" y="0px"
	 viewBox="0 0 100 100" style="enable-background:new 0 0 100 100;" xml:space="preserve">
<g>
	<path d="M26.59,12.68c0,2.52-0.19,4.9,0.03,7.24c0.71,7.6,6.84,13.13,14.51,13.2c5.63,0.05,11.27,0.03,16.9,0.01
		c9.14-0.04,15.27-6.06,15.49-15.21c0.04-1.68,0.01-3.36,0.01-5.01c8.38-1.31,14.91,0.91,17.08,8.59c0.33,1.18,0.36,2.47,0.36,3.71
		c0.02,19.97-0.09,39.94,0.07,59.9c0.06,7-5.17,12.65-12.58,12.6c-18.96-0.12-37.93-0.03-56.9-0.04c-7.65,0-12.57-4.86-12.58-12.51
		c-0.03-20.03-0.03-40.06,0-60.09c0.01-7.19,4.18-11.75,11.31-12.37C22.26,12.53,24.26,12.68,26.59,12.68z M52.96,56.6
		c0-2.99,0.05-5.73-0.02-8.47c-0.06-2.48-2.15-3.96-4.17-2.99c-1.33,0.64-1.81,1.81-1.81,3.24c0.01,2.67,0,5.34,0,7.92
		c-0.33,0.14-0.44,0.23-0.56,0.23c-2.25,0.03-4.5,0.05-6.75,0.06c-2.91,0.01-4.33,0.98-4.34,2.97c-0.02,1.95,1.41,2.91,4.34,2.92
		c2.41,0.01,4.82,0,7.32,0c0,3.01-0.04,5.69,0.01,8.38c0.04,2.03,1.3,3.36,3.03,3.36c1.65,0,2.83-1.28,2.93-3.26
		c0.06-1.25,0.01-2.5,0.02-3.75c0-1.53,0-3.06,0-4.72c2.99,0,5.68,0.09,8.35-0.05c0.9-0.05,2.1-0.45,2.57-1.11
		c0.52-0.72,0.79-2.19,0.39-2.87c-0.5-0.86-1.76-1.68-2.76-1.77C58.74,56.44,55.93,56.6,52.96,56.6z"/>
	<path d="M49.94,27.18c-2.75,0-5.51,0.04-8.26-0.01c-5.57-0.1-9.1-3.61-9.26-9.16c-0.05-1.75-0.06-3.51,0-5.26
		c0.19-5.24,3.91-8.9,9.14-8.95c5.63-0.04,11.26-0.04,16.89,0c5.24,0.04,9.01,3.69,9.14,8.93c0.06,2.49,0.07,5.02-0.3,7.48
		c-0.58,3.83-3.72,6.5-7.6,6.89c-0.25,0.03-0.5,0.07-0.75,0.07C55.95,27.18,52.94,27.18,49.94,27.18
		C49.94,27.18,49.94,27.18,49.94,27.18z M50.03,21.44c2.75,0,5.51,0.03,8.26-0.01c2.27-0.04,3.38-1.1,3.44-3.3
		c0.05-1.81,0.06-3.63-0.01-5.44c-0.07-1.88-1.04-2.98-2.89-3C52.95,9.61,47.07,9.61,41.19,9.7c-1.84,0.03-2.81,1.16-2.89,3.02
		c-0.07,1.69-0.05,3.38-0.02,5.07c0.04,2.58,1.06,3.61,3.68,3.65C44.65,21.47,47.34,21.44,50.03,21.44z"/>
</g>
</svg>
