<?xml version="1.0" encoding="utf-8"?>
<!-- Generator: Adobe Illustrator 27.0.1, SVG Export Plug-In . SVG Version: 6.00 Build 0)  -->
<svg version="1.1" id="Layer_1" xmlns="http://www.w3.org/2000/svg" xmlns:xlink="http://www.w3.org/1999/xlink" x="0px" y="0px"
	 viewBox="0 0 206.17 136.73" style="enable-background:new 0 0 206.17 136.73;" xml:space="preserve">
<style type="text/css">
	.st0{fill:#ECF3FB;}
	.st1{fill:#599DAD;}
	.st2{fill:#87D0CD;}
	.st3{fill:#6DB7C0;}
	.st4{fill:#7A97CD;}
	.st5{fill:#DFEBF8;}
	.st6{fill:#ACC1E4;}
	.st7{fill:#F89748;}
	.st8{fill:#EC7E2A;}
	.st9{fill:#D39E7A;}
	.st10{fill:#E0B594;}
	.st11{fill:#183660;}
	.st12{fill:#243962;}
	.st13{fill:#F2C7AB;}
	.st14{fill:#B07E5C;}
	.st15{fill:#E2B291;}
	.st16{fill:#EE985E;}
	.st17{fill:#82B379;}
	.st18{fill:#2B488C;}
	.st19{fill:#FAB17E;}
	.st20{fill:#A8D29F;}
	.st21{fill:#1C478A;}
	.st22{fill:#923030;}
	.st23{fill:#C75548;}
	.st24{fill:#5074B9;}
	.st25{fill:#729AD1;}
	.st26{fill:#EE9960;}
	.st27{fill:#2E3B65;}
	.st28{fill:#283250;}
</style>
<g>
	<path class="st0" d="M24.83,133.12c0,0-22.25-25.5-12.96-55.46c8.34-26.9,46.05-44.3,66.09-30.98
		c9.69,6.44,17.52-19.46,49.69-28.94c23.79-7.01,58.97,8.71,50.03,56.87c-6.79,36.61,26.9,18.36,19.54,58.81L24.83,133.12z"/>
	<g>
		<path class="st1" d="M142.73,41.48c0,0-4.84-5.23-0.62-8.83c0,0,3.1-2.04,5.7-1.98c0,0-3.44,6.29-2.23,6.86
			c1.21,0.57,3.33-7.28,3.33-7.28s7.2-0.97,9.57,0.06c0,0-5.99,5.29-4.68,5.54c1.31,0.25,7.8-4.96,7.8-4.96s6.77,0.89,6.56,5.01
			c-0.2,4.12-2.47,5.47-3.5,5.4c-1.02-0.07-7.07-2.12-7.16-1.28c-0.1,0.84,3.59,3.43,6.11,3.47c0,0-4.55,5.41-7.75,4.02
			c-3.21-1.39-3.57-3.77-5.56-4.6c-2-0.82-3.67-0.76-2.83,0.13c0.85,0.88,4.43,1.64,5.63,3.59c1.2,1.94,2.26,3.25-1.02,2.88
			c-3.28-0.37-8.67-2.55-9-5.28C142.73,41.48,142.73,41.48,142.73,41.48z"/>
		<g>
			<path class="st1" d="M164.86,36.12c0,0-18.29-0.02-22.13,5.36c0,0-0.79,2.71-3.45,5.24l-0.38,1.18c0,0,3.04-3.46,4.17-3.7
				C143.07,44.2,141.05,37.8,164.86,36.12z"/>
			<path class="st1" d="M139.29,46.72c0,0-3.81,3.05-3.89,8.24l0.71,0.04c0,0,1.05-5.4,3.24-7.58
				C141.53,45.23,139.29,46.72,139.29,46.72z"/>
		</g>
	</g>
	<g>
		<path class="st2" d="M131.8,35.24c0,0-10.87-2.45-8.62-10.83c0,0,2.19-5.38,5.58-7.61c0,0,1.15,11.15,3.21,10.81
			c2.06-0.34-2.17-12.33-2.17-12.33s8.41-7.64,12.38-8.41c0,0-3.03,12.12-1.11,11.28c1.91-0.84,5.65-13.31,5.65-13.31
			s9.51-4.85,12.9,0.63c3.39,5.48,1.66,9.24,0.28,10.06c-1.38,0.82-10.99,3.53-10.37,4.7c0.62,1.17,7.67,1.24,10.94-0.95
			c0,0-1.06,11-6.43,12.05c-5.37,1.05-7.94-1.7-11.25-0.99c-3.3,0.71-5.41,2.28-3.53,2.67c1.87,0.39,7.17-1.82,10.44-0.37
			c3.27,1.44,5.79,2.18,1.24,4.62c-4.55,2.43-13.43,4.39-16.28,1.18C131.8,35.24,131.8,35.24,131.8,35.24z"/>
		<g>
			<path class="st3" d="M155.57,8.72c0,0-23.59,16.2-23.76,26.53c0,0,1.38,4.19,0.21,9.81l0.55,1.86c0,0,0.85-7.15,2.09-8.46
				C134.65,38.46,126.37,31.99,155.57,8.72z"/>
			<path class="st3" d="M132.01,45.05c0,0-2.21,7.31,2.29,14.06l0.95-0.59c0,0-3.44-7.89-2.56-12.64
				C133.58,41.14,132.01,45.05,132.01,45.05z"/>
		</g>
	</g>
	<g>
		<path class="st2" d="M71.43,97.61c0,0,10.87-2.45,8.62-10.83c0,0-2.19-5.38-5.58-7.61c0,0-1.15,11.15-3.21,10.81
			c-2.06-0.34,2.17-12.33,2.17-12.33s-8.41-7.64-12.38-8.41c0,0,3.03,12.12,1.11,11.28c-1.91-0.84-5.65-13.31-5.65-13.31
			s-9.51-4.85-12.9,0.63c-3.39,5.48-1.66,9.24-0.28,10.06c1.38,0.82,10.99,3.53,10.37,4.7c-0.62,1.17-7.67,1.24-10.94-0.95
			c0,0,1.06,11,6.43,12.05c5.37,1.05,7.94-1.7,11.25-0.99c3.3,0.71,5.41,2.28,3.53,2.67c-1.87,0.39-7.17-1.82-10.44-0.37
			c-3.27,1.44-5.79,2.18-1.24,4.62c4.55,2.43,13.43,4.39,16.28,1.18C71.43,97.61,71.43,97.61,71.43,97.61z"/>
		<g>
			<path class="st3" d="M47.66,71.08c0,0,23.59,16.2,23.76,26.53c0,0-1.38,4.19-0.21,9.81l-0.55,1.86c0,0-0.85-7.15-2.09-8.46
				C68.58,100.82,76.85,94.35,47.66,71.08z"/>
			<path class="st3" d="M71.22,107.42c0,0,2.21,7.31-2.29,14.06l-0.95-0.59c0,0,3.44-7.89,2.56-12.64
				C69.65,103.51,71.22,107.42,71.22,107.42z"/>
		</g>
	</g>
	<g>
		<rect x="64.39" y="22.33" class="st4" width="79.1" height="111.08"/>
		<g>
			<rect x="67.17" y="25.4" class="st5" width="73.54" height="105.95"/>
			<rect x="74.74" y="38.4" class="st6" width="60.04" height="3.43"/>
			<rect x="74.74" y="59.36" class="st6" width="60.04" height="1.58"/>
			<rect x="74.74" y="63.07" class="st6" width="60.04" height="1.58"/>
			<rect x="74.74" y="66.77" class="st6" width="60.04" height="1.58"/>
			<rect x="74.74" y="70.48" class="st6" width="60.04" height="1.58"/>
			<rect x="74.74" y="74.18" class="st6" width="60.04" height="1.58"/>
			<rect x="74.74" y="77.89" class="st6" width="60.04" height="1.58"/>
			<g>
				<path class="st6" d="M92.32,99.41c0,2.56-2.07,4.63-4.63,4.63c-2.56,0-4.63-2.07-4.63-4.63c0-2.56,2.07-4.63,4.63-4.63
					C90.25,94.78,92.32,96.86,92.32,99.41z"/>
				<path class="st6" d="M111.72,103.87c-0.01,0-0.03,0-0.04,0c-0.13-0.02-0.21-0.14-0.19-0.27c0.04-0.25,1.1-6.25,4.42-8.29
					c0.24-0.14,0.39-0.07,0.45-0.01c0.29,0.25,0.07,0.89-0.93,3.29c-0.4,0.96-0.87,2.09-1.07,2.78c0.35-0.46,0.88-1.26,1.3-1.89
					c1.31-1.97,1.57-2.3,1.83-2.3c0.1,0,0.18,0.04,0.23,0.12c0.14,0.2,0.03,0.54-0.33,1.52c-0.14,0.38-0.35,0.95-0.41,1.26
					c0.19-0.17,0.47-0.53,0.63-0.75c0.46-0.59,0.69-0.88,0.96-0.83c0.06,0.01,0.2,0.05,0.26,0.23c0.03,0.08,0.04,0.16,0.05,0.25
					c0.04,0.24,0.08,0.51,0.36,0.67c0.58,0.33,2.24,0.31,6.89-1.63c0.12-0.05,0.25,0.01,0.3,0.12c0.05,0.12-0.01,0.25-0.12,0.3
					c-3.92,1.64-6.31,2.16-7.29,1.61c-0.48-0.27-0.55-0.72-0.59-1c-0.13,0.14-0.32,0.38-0.45,0.55c-0.5,0.65-0.83,1.05-1.17,1.02
					c-0.1-0.01-0.19-0.06-0.25-0.15c-0.16-0.25,0-0.75,0.39-1.83c0.06-0.17,0.14-0.37,0.2-0.55c-0.32,0.44-0.76,1.1-1.11,1.63
					c-1.47,2.21-1.74,2.53-2.04,2.45c-0.05-0.01-0.19-0.07-0.21-0.28c-0.03-0.52,0.45-1.72,1.19-3.49c0.38-0.9,0.87-2.08,0.99-2.6
					c-3.02,2.03-4.04,7.81-4.05,7.87C111.93,103.79,111.83,103.87,111.72,103.87z M116.85,100.18L116.85,100.18L116.85,100.18z"/>
			</g>
		</g>
		<path class="st7" d="M121.26,20.53h-9.33c0.21-0.55,0.32-1.15,0.32-1.78c0-2.77-2.25-5.02-5.02-5.02s-5.02,2.25-5.02,5.02
			c0,0.63,0.12,1.22,0.32,1.78h-9.33c-0.75,0-1.36,0.61-1.36,1.36v3.77c0,0.75,0.61,1.36,1.36,1.36h28.04
			c0.75,0,1.36-0.61,1.36-1.36v-3.77C122.62,21.13,122.01,20.53,121.26,20.53z M107.24,20.6c-1.02,0-1.85-0.83-1.85-1.85
			c0-1.02,0.83-1.85,1.85-1.85c1.02,0,1.85,0.83,1.85,1.85C109.1,19.77,108.27,20.6,107.24,20.6z"/>
		<path class="st8" d="M93.22,27.01h28.04c0.75,0,1.36-0.61,1.36-1.36v-3.77L93.22,27.01z"/>
	</g>
	<g>
		<g>
			<path class="st9" d="M18.3,132.97c1.87-1.91,5.16-3.22,8.97-3.38v-5.63h-6.56c-0.15,0-0.28-0.13-0.36-0.32
				c-0.06-0.14-0.09-0.31-0.09-0.49v-0.28c0-0.45,0.2-0.82,0.45-0.82h6.56v-15.72c0-0.42,0.34-0.76,0.76-0.76l0,0
				c0.42,0,0.76,0.34,0.76,0.76v15.72h6.56c0.25,0,0.45,0.37,0.45,0.82v0.28c0,0.19-0.04,0.37-0.1,0.51
				c-0.08,0.19-0.21,0.31-0.35,0.31h-6.56v5.63c3.8,0.15,7.1,1.47,8.97,3.38c0.14,0.14,0.26,0.28,0.38,0.42H17.92
				C18.04,133.25,18.17,133.11,18.3,132.97z"/>
			<path class="st10" d="M27.27,129.62c2.65,0.25,4.94,1.53,6.26,3.35c0.1,0.14,0.2,0.28,0.28,0.42h1.87
				c-0.09-0.14-0.18-0.29-0.28-0.42c-1.47-2.04-4.14-3.39-7.19-3.39C27.89,129.58,27.58,129.59,27.27,129.62z"/>
		</g>
		<path class="st11" d="M47.96,129.65c0,0,0.23,3.69,0.94,3.74c0.09,0.01,3.62,0.01,3.62,0.01l4.5-0.03c0,0-0.03-1.08-1.34-1.31
			c-1.31-0.23-3.52-1.15-4.31-2.89C50.53,127.34,47.96,129.65,47.96,129.65z"/>
		<path class="st12" d="M30.14,102.55c0.64,1.09,1.38,2.11,2.15,3.08c2.37,2.99,4.94,5.45,5.39,7.78c0.09,0.46,0.23,0.96,0.42,1.49
			c0.19,0.53,0.42,1.09,0.69,1.67c1,2.18,2.51,4.63,4,6.85c2.59,3.84,4.71,6.42,4.71,6.42s0.68,0.53,2.62,0.53
			c0.54,0,2.36-0.3,2.36-0.3c-0.18-0.45-2.33-5.55-4.94-12.03c-1.06-2.63-2.19-5.43-3.27-8.13c-0.14-0.36-0.29-0.72-0.43-1.07
			c-0.33-0.83-0.66-1.64-0.98-2.43c-2.45-6.08-4.4-10.93-4.4-10.93s-9.79-3.71-10.8-1.3C26.83,96.15,27.52,98.09,30.14,102.55z"/>
		<rect x="46.8" y="92.38" class="st9" width="14.82" height="41.02"/>
		
			<rect x="61" y="92.38" transform="matrix(-1 -1.224647e-16 1.224647e-16 -1 132.6064 225.7729)" class="st13" width="10.6" height="41.02"/>
		<rect x="45.79" y="91.55" class="st14" width="15.31" height="0.83"/>
		<rect x="61.1" y="91.55" class="st15" width="11.6" height="0.83"/>
		<path class="st16" d="M45.56,86.03c0,0,2.12,1.21,2.72,1.21c0.59,0,2.93-0.45,3.58-0.12c0.65,0.33,1.83,1.67,2.05,2.11
			c0.4,0.79-1.6,0.44-2.54-0.23c-0.14-0.1-0.31-0.13-0.47-0.1c-0.49,0.11-1.5,0.29-1.99,0.11c-0.66-0.24-4.13-0.52-4.13-0.52
			L45.56,86.03z"/>
		<path class="st17" d="M29.4,69.58c0,0,2.2,15.65,5.85,17.05c1.8,0.69,9.75,2.26,12.1,2.42c0,0,0.58-0.47,0.44-2.37
			c0,0-8.33-3.06-9.51-4.72c-1.76-2.47,1.09-10.11-1.12-12.43C34.95,67.2,31.22,66.2,29.4,69.58z"/>
		<path class="st11" d="M37.61,119.11c0,0-3.11,2-2.81,2.65c0.04,0.09,1.76,3.16,1.76,3.16l2.22,3.92c0,0,0.93-0.55,0.49-1.81
			c-0.44-1.26-0.71-3.63,0.42-5.17C40.88,120.22,37.61,119.11,37.61,119.11z"/>
		<path class="st18" d="M39.38,122.94c0,0-2.19-2.03-2.53-3.29c0,0,8.01-9.59,9.74-11.74c0.08-0.1,0.06-0.21-0.05-0.33
			c-1.31-1.48-15.88-4.48-17.78-7.45c-0.66-1.02-1.03-1.99-1.23-2.84c-0.43-1.81-0.09-3.06-0.09-3.06l14.55-0.42
			c0,0,12.11,7.54,13.48,12.68C56.84,111.65,39.38,122.94,39.38,122.94z"/>
		<path class="st12" d="M46.54,107.58c-1.31-1.48-15.88-4.48-17.78-7.45c-0.66-1.02-1.03-1.99-1.23-2.84v-1.84l6.18-0.97
			c0,0,1.75,5.4,6.95,7.42C45.53,103.8,46.45,107.17,46.54,107.58z"/>
		<path class="st19" d="M38.01,68.6c-2.94,0.76-7.82-1.97-7.82-1.97s1.89-1.27,2.6-4.07c0.04-0.14,0.07-0.29,0.1-0.43
			c0.31-0.07,0.89-0.19,1.51-0.32l2.25,2.01c0,0-0.05,0.84-0.33,2.27c-0.05,0.25-0.1,0.52-0.17,0.81
			C37.34,67.65,38.01,68.6,38.01,68.6z"/>
		<path class="st20" d="M27.07,80.8c0.42,5.67-0.13,14.29,0.35,15.79c0.41,1.29,5.11,0.52,6.99,0.09c0.69-0.16,1.54-0.39,2.41-0.66
			c2.42-0.75,5.07-1.82,5.35-2.62c0.01-0.03,0.02-0.06,0.03-0.09c0.03-0.12,0.02-0.22-0.01-0.33c-0.09-0.41-0.46-0.84-0.5-1.85
			c-0.05-1.12-0.04-2.44-0.08-3.86c0-0.16,0-0.33-0.02-0.49l0-0.06c0-0.03,0-0.06,0-0.09c-0.04-1.58-0.12-3.25-0.22-4.9
			c-0.06-1.04-0.13-2.06-0.21-3.05c-0.21-2.54-0.5-4.8-0.87-6.23c-0.62-2.33-1.98-3.85-3.21-4.96l-0.89-0.77
			c-1,0.22-2.18,0.07-3.25-0.43c-1.16-0.55-1.55-0.94-1.76-0.79C28.49,67.56,26.57,73.86,27.07,80.8z"/>
		<path class="st17" d="M36.81,96.02c2.42-0.75,5.07-1.82,5.35-2.62c0.01-0.03,0.02-0.06,0.03-0.09c0-0.11,0-0.22-0.01-0.33
			c-0.09-0.41-0.46-0.84-0.5-1.85c-0.05-1.12-0.04-2.44-0.08-3.86c0-0.16,0-0.33-0.02-0.49l0-0.06c0-0.03,0-0.06,0-0.09l-9.8-12.49
			C31.77,74.14,25.19,87.85,36.81,96.02z"/>
		<path class="st16" d="M36.64,63.82c0,0-0.05,0.84-0.33,2.27c-2.2-0.71-3.19-2.69-3.52-3.53c0.04-0.14,0.07-0.29,0.1-0.43
			c0.31-0.07,0.89-0.19,1.51-0.32L36.64,63.82z"/>
		<path class="st19" d="M36.93,65.09c0,0-4.79-0.8-4.24-3.77c0.54-2.97,0.29-5.08,3.37-4.69c3.08,0.38,3.46,1.63,3.52,2.66
			C39.65,60.32,38.19,65.22,36.93,65.09z"/>
		<polygon class="st21" points="47.42,90.82 59.37,90.82 62.62,80.32 63.05,80.45 59.61,91.55 47.41,91.55 		"/>
		<path class="st19" d="M44.25,91.12c0,0,3.92,1.03,5.39,0.92c1.47-0.11,2.69-0.81,2.88-1.17c0.18-0.36,0.57-1.01-0.43-0.89
			c-1,0.12-2.37,0.33-2.41,0.14c-0.04-0.19,0.82-0.17,0.82-0.17s0.26-0.38-0.07-0.39c-0.33-0.01-1.28-0.27-1.63-0.1
			c-0.35,0.18-0.68,0.83-0.94,0.8c-0.26-0.03-3.28-1.36-3.28-1.36L44.25,91.12z"/>
		<path class="st20" d="M30.37,70.36c0,0,0.46,15.79,3.93,17.59c1.71,0.89,9.44,3.32,11.76,3.74c0,0,0.62-0.4,0.69-2.31
			c0,0-7.94-3.96-8.93-5.74c-1.48-2.65,2.2-9.93,0.26-12.48C36.15,68.6,32.56,67.2,30.37,70.36z"/>
		<path class="st12" d="M32.78,62.56c0,0-0.05-1.02,0.57-1.6c0,0-0.22-1.02,0.19-1.19c0.4-0.17,0.49,0.69,0.67,0.56
			c0.19-0.13,1.01-0.78,1.37-1.72c0.35-0.94,3.59,0.2,3.97,0.37c0.38,0.17,1.59-0.45,1.83-0.96c0,0-0.67-0.54-0.98-0.94
			c-0.3-0.4-2.43-3.14-5.4-2.36c-2.97,0.78-3.37,2.19-3.2,3.41C31.98,59.33,31.57,62.15,32.78,62.56z"/>
		<path class="st22" d="M38.3,100.51L38.3,100.51c-4.5,0-8.95-0.91-13.09-2.68l-2.69-1.15c-2.44-1.04-5.15,0.75-5.15,3.4v1.33v2.31
			v1.48c0,0.5,0.41,0.91,0.91,0.91H38.3c0.5,0,0.91-0.41,0.91-0.91v-3.79C39.2,100.92,38.79,100.51,38.3,100.51z"/>
	</g>
	<g>
		<path class="st23" d="M116.53,104.46c-4.22,0.72-8.31,0.88-11.42,0.64c-3.14-0.25-4.98-1.22-5.17-2.32
			c-0.17-1,0.99-2.15,3.37-3.33l0,0c-2.28,1.12-3.38,2.39-3.22,3.3c0.17,1.01,2.01,1.73,5.03,1.97c3.1,0.24,7.13-0.02,11.33-0.74
			c4.21-0.72,8.09-1.82,10.93-3.08c2.77-1.23,4.26-2.52,4.09-3.53c-0.18-1.07-2.16-2.1-5.17-2.69c-3.41-0.67-7.44-0.44-11.41,0.24
			c-7.45,1.28-10.37,2.67-12.84,4.22l0,0c2.48-1.55,5.3-3.31,12.78-4.6c3.98-0.68,8.07-0.69,11.5-0.02c3.07,0.6,5.09,1.68,5.29,2.83
			c0.19,1.11-1.29,2.42-4.17,3.7C124.58,102.31,120.75,103.73,116.53,104.46z"/>
	</g>
	<g>
		<path class="st19" d="M165.63,90.64c0,0-0.24,2.38-0.51,2.82c-0.27,0.45-1.41,1.89-1.9,2.17c-0.49,0.28,0.3-1.89,0.2-2.31
			c-0.1-0.42-0.4,0.77-0.61,0.8c-0.21,0.03-0.16-1.05-0.17-1.44c-0.01-0.39,1.04-1.36,1.41-2.19
			C164.43,89.66,165.63,90.64,165.63,90.64z"/>
		<path class="st19" d="M136.45,68.73l-0.55-1.03c0,0,0.27-1.84-2.03-3c0,0-0.84-0.34-1.32,0.34c-0.44,0.63,0.83,0.52,0.76,1.6
			c-0.07,1.08,0.44,1.71,1.16,2.07l0.59,0.68L136.45,68.73z"/>
		<path class="st24" d="M158.18,66.27c0,0-1.98,9.69-12.84,12.86c-3.39,0.99-11.1-10.18-11.1-10.18s0.27-1.03,1.97-0.79
			c0,0,7.51,4.97,8.45,5.51c0.84,0.48,6.35-6.16,8.87-7.23C156.04,65.37,158.18,66.27,158.18,66.27z"/>
		<g>
			
				<rect x="133.14" y="61.03" transform="matrix(0.1518 -0.9884 0.9884 0.1518 48.4138 188.6993)" class="st23" width="2.03" height="10.21"/>
			<polygon class="st19" points="126.76,65.01 128.95,66.37 129.26,64.36 			"/>
			<path class="st19" d="M140.43,66.76l-0.1,0.63c-0.06,0.39-0.42,0.66-0.82,0.6l-0.47-0.07l0.31-2.01l0.51,0.08
				C140.23,66.05,140.48,66.39,140.43,66.76z"/>
		</g>
		<g>
			<path class="st12" d="M171.16,127.21c0,0,1.35,1.23,1.09,2.1c-0.26,0.87-1.48,1.46-1.64,2.53c-0.16,1.07-0.82,1.65-1.41,1.65
				c-0.59,0-2.82,0-2.82,0s-0.44-0.75,0.62-0.98c1.05-0.23,1.45-1.48,1.38-2.65c-0.07-1.17,0.1-2.72,0.1-2.72l2.24-0.52
				L171.16,127.21z"/>
			<path class="st12" d="M154.62,130.4c0,0,0.24,2.8-0.35,3.09l-7.58-0.02c0,0,0-0.87,1.22-1.07c1.22-0.19,3.35-0.91,3.72-2.49
				C151.99,128.32,154.62,130.4,154.62,130.4z"/>
			<path class="st18" d="M148.22,90.83c0,0,0.4,4.91,0.87,10.81c0.64,8.02,1.41,17.86,1.48,19.73c0.13,3.24,0.66,8.42,0.66,8.42
				s1.25,1.23,3.75,0.71c0,0,2.23-7.4,2.86-15.22c0.01-0.13,0.02-0.26,0.03-0.39c0.59-7.97,1.51-24.74,1.51-24.74L148.22,90.83z"/>
			<path class="st12" d="M148.22,90.83c0,0,0.4,4.91,0.87,10.81l8.75,13.64c0.01-0.13,0.02-0.26,0.03-0.39
				c0.59-7.97,1.51-24.74,1.51-24.74L148.22,90.83z"/>
			<path class="st18" d="M150.05,91.42c0,0,7.2,17.78,11.94,26.13c4.74,8.36,6.22,10.69,6.22,10.69s2.71-1.07,2.96-1.8
				c0,0-1.81-16.13-4.98-20.06c-1.79-2.22-3.9-8.89-4-11.22c-0.1-2.33-0.64-6.95-0.64-6.95L150.05,91.42z"/>
		</g>
		<path class="st19" d="M159.52,64.02c0,0-4.87,2.35-7.68,1.48c0,0,0.69-0.87,1.9-1.52c-0.1-0.56-0.17-1.05-0.22-1.47
			c-0.12-0.96-0.12-1.5-0.12-1.5l1.88-1.48l1.78-1.42C156.93,62.09,159.52,64.02,159.52,64.02z"/>
		<path class="st25" d="M162.09,89.12c0.01,0.3-0.63,0.64-0.91,0.77c-2.09,0.92-4.03,1.55-6.23,1.77c-2.6,0.27-5.68-0.32-6.74-0.3
			c-0.11,0-0.21-0.04-0.29-0.12c-0.08-0.05-0.13-3.19-0.08-7.14c0-0.16,0-0.32,0.01-0.48v-0.05c0.02-1.54,0.08-3.16,0.15-4.78
			c0.15-3.55,0.43-6.98,0.91-8.87c0.57-2.23,1.87-3.71,3.05-4.79l0.97-0.85c0.97,0.19,2,0.14,3.03-0.36
			c1.12-0.54,2.33-1.13,2.53-0.98c1.47,1.07,2.46,3.49,2.99,6.58c0.3,1.78,0.45,3.77,0.44,5.85c0,0.77-0.02,1.55-0.06,2.33
			c-0.26,4.21,0,7.87,0.15,9.99C162.05,88.3,162.08,88.78,162.09,89.12z"/>
		<path class="st24" d="M162.01,88.93c-17.07-0.03-3.15-18.52-3.15-18.52l2.76-0.9c0.22,1.9,0.33,4.02,0.32,6.25
			c0,0.82-0.02,1.66-0.05,2.49C161.71,82.76,161.9,86.67,162.01,88.93z"/>
		<path class="st26" d="M157.1,59.64c0,0-1.23,2.24-3.58,2.87c-0.12-0.96-0.12-1.5-0.12-1.5l1.88-1.48L157.1,59.64z"/>
		<path class="st19" d="M152.55,60.94c0,0,4.65,0.76,5.09-2.1c0.44-2.86,1.33-4.68-1.62-5.29c-2.95-0.61-3.69,0.4-4.08,1.32
			C151.56,55.79,151.35,60.67,152.55,60.94z"/>
		<path class="st27" d="M159.33,53.21c0.04-0.05,0.14-0.09,0.36-0.1c0,0-0.17-0.11-0.4-0.11c-0.05-0.3-0.21-0.83-0.72-0.96
			c0,0,0.28,0.15,0.31,0.47c-0.6-0.62-1.89-1.07-5.45-0.78c-4.7,0.37-3.15,3.38-2.54,3.74c0.61,0.36,2.14-0.62,3.27-0.53
			c1.13,0.09,1.35,1.73,1.73,1.95c0.38,0.22,0.23-0.17,0.75-0.41c0.52-0.24,0.57,0.63,0.42,1.19c-0.15,0.56,0.56,1.3,0.56,1.3
			s0,0,0.72-0.78c0.72-0.78,1.4-4.07,1.07-4.77C159.38,53.34,159.36,53.28,159.33,53.21z"/>
		<path class="st25" d="M158.48,62.91c0,0,2.94,1.39,4.35,3.53c2.19,3.32,4.72,15.43,4.77,16.55c0.05,1.12-1.85,9.04-1.85,9.04
			s-1.92-0.13-2.42-1.1c0,0,0.38-8.13,0.14-8.65c-0.24-0.52-8.02-10.91-7.15-13.12C157.2,66.94,158.48,62.91,158.48,62.91z"/>
		<path class="st19" d="M135.89,67.65c0,0,0.16-0.63-0.28-0.92c-0.44-0.28-0.84-1.06-1.03-0.95c-0.38,0.22,0.21,0.89,0.1,1.73
			C134.65,67.81,135.34,68.58,135.89,67.65z"/>
	</g>
	<path class="st28" d="M5.28,133.85H202.6c0.1,0,0.18-0.1,0.18-0.23l0,0c0-0.12-0.08-0.23-0.18-0.23H5.28c-0.1,0-0.18,0.1-0.18,0.23
		l0,0C5.1,133.75,5.18,133.85,5.28,133.85z"/>
</g>
</svg>
